<?xml version="1.0" encoding="utf-8"?>
<!-- Generator: Adobe Illustrator 22.0.0, SVG Export Plug-In . SVG Version: 6.00 Build 0)  -->
<svg version="1.1" id="Capa_1" xmlns="http://www.w3.org/2000/svg" xmlns:xlink="http://www.w3.org/1999/xlink" x="0px" y="0px"
	 viewBox="0 0 498.5 560.5" style="enable-background:new 0 0 498.5 560.5;" xml:space="preserve">
<style type="text/css">
	.st0{fill:#FFFFFF;}
</style>
<path class="st0" d="M216.6,243c-56-15.1-106.4-44.8-146.7-84.6l-1.7-1.7C25.7,201.6-0.1,262.1-0.1,328.2
	c0,103,62.7,191.5,151.8,229h-0.6c50.4-57.7,80.6-132.7,80.6-215C232.3,307.4,226.7,274.4,216.6,243L216.6,243z"/>
<path class="st0" d="M428.9,156.8l-1.7,2.2c-39.8,39.8-90.2,69.4-146.7,84.6c-10.1,31.4-15.1,64.4-15.1,99.1
	c0,82.3,30.2,157.4,80.6,215h-0.6c89-38.1,151.8-126.6,151.8-229.6C497.2,261.5,470.9,201,428.9,156.8L428.9,156.8z"/>
<path class="st0" d="M380.2,117c-18.5-11.8-38.6-20.7-60.5-27.4l48.7-61c5.6-6.7,4.5-16.8-2.8-22.4c-6.7-5.6-16.8-4.5-22.4,2.8
	l-57.7,73.4c-11.8-1.7-24.1-2.8-37-2.8c-12.3,0-24.6,1.1-37,2.8L153.9,9c-5.6-6.7-15.1-7.8-22.4-2.8c-6.7,5.6-7.8,15.1-2.8,22.4
	l48.7,61c-21.3,6.2-42,15.7-60.5,27.4c29.1,41.4,77.3,68.3,131.6,68.3C302.9,185.4,351,158.5,380.2,117L380.2,117z"/>
</svg>
