<?xml version="1.0" encoding="utf-8"?>
<!-- Generator: Adobe Illustrator 22.0.0, SVG Export Plug-In . SVG Version: 6.00 Build 0)  -->
<svg version="1.1" id="Capa_1" xmlns="http://www.w3.org/2000/svg" xmlns:xlink="http://www.w3.org/1999/xlink" x="0px" y="0px"
	 viewBox="0 0 423.8 558.1" style="enable-background:new 0 0 423.8 558.1;" xml:space="preserve">
<style type="text/css">
	.st0{fill:#FFFFFF;}
</style>
<g>
	<path class="st0" d="M318.3,539.1c-0.3,0.1-0.6,0.3-0.9,0.4c0.3-0.1,0.6-0.1,0.9-0.2V539.1z"/>
	<path class="st0" d="M313.1,133.3c23,24.1,31.9,54.9,29.7,75c-2.8,28-33.6,43.1-61.6,28c-36.4-20.2-14-82.3-16.8-143.9
		c-2.2-61.6-57.1-89-57.1-89c18.5,20.2,24.6,64.4,12.9,105.3C208.3,149.5,103.6,196,74.5,244.7c-29.1,48.7-21.3,77.8-21.3,77.8
		c-26.9-26.9-26.9-86.8-26.9-86.8c-14,29.1-21.8,61.6-21.8,96.3c0,124.3,100.8,225.1,225.1,225.1c30.9,0,60.8-6.3,87.7-17.7
		c-11.6,2.8-23.6,4.2-36.2,4.2c-84.6,0-153.4-68.9-153.4-153.4c0-13.4,1.7-26.3,5-38.6c0,0-5.6,42,23.5,58.2c0,0-7.3-19.6-7.3-30.8
		c0-37.5,30.2-68.3,68.3-68.3c38.1,0,68.9,30.8,68.9,68.9c0,26.9-15.7,50.4-38.1,61.6c0,0,66.6-16.2,65.5-94.1
		c0,0,44.2,73.4-11.8,151.2c0,0,118.2-35.8,118.2-185.4C420,198.2,313.1,133.3,313.1,133.3z"/>
</g>
</svg>
