<?xml version="1.0" encoding="utf-8"?>
<!-- Generator: Adobe Illustrator 22.0.0, SVG Export Plug-In . SVG Version: 6.00 Build 0)  -->
<svg version="1.1" id="Capa_1" xmlns="http://www.w3.org/2000/svg" xmlns:xlink="http://www.w3.org/1999/xlink" x="0px" y="0px"
	 viewBox="0 0 564.9 494.9" style="enable-background:new 0 0 564.9 494.9;" xml:space="preserve">
<style type="text/css">
	.st0{fill:#FFFFFF;}
</style>
<path class="st0" d="M197.9,108.3C91.5,116.1,4.7,194.5,4.7,300.9c0,106.4,86.2,193.2,193.2,193.2c70,0,131-37,164.6-92.4
	c0,0-41.4,12.3-82.9,16.8c-11.2,1.1-21.8-5-23.5-16.2c-2.2-11.2,5-21.8,16.2-23.5c0,0,114.2-23.5,166.3-84c0,0-68.9,33-152.3,39.8
	c-11.2,1.1-21.8-5-23.5-16.2c-2.2-11.2,5-21.8,16.2-23.5c0,0,150.1-23,233-131c0,0-82.3,60.5-218.4,68.9c-11.2,0.6-21.8-5-23.5-16.2
	c-1.7-11.2,5-21.8,16.2-23.5c0,0,165.2-17.9,274.4-188.7C559.1,4.7,443.8,89.8,197.9,108.3L197.9,108.3z"/>
</svg>
