<?xml version="1.0" encoding="utf-8"?>
<!-- Generator: Adobe Illustrator 22.0.0, SVG Export Plug-In . SVG Version: 6.00 Build 0)  -->
<svg version="1.1" id="Capa_1" xmlns="http://www.w3.org/2000/svg" xmlns:xlink="http://www.w3.org/1999/xlink" x="0px" y="0px"
	 viewBox="0 0 528.8 560.7" style="enable-background:new 0 0 528.8 560.7;" xml:space="preserve">
<style type="text/css">
	.st0{fill:#FFFFFF;}
</style>
<path class="st0" d="M515.2,6.7c0,0-194.9-28-367.4,65C62.8,113.1,4,200.5,4,301.3c0,66.6,25.8,126.6,67.2,172.5l97.4-103l6.7-164.1
	l28.6,126.6l49.8-52.6l4.5-126.6l22.4,98l138.9-146.7L304.1,263.8l100.8,3.9l-124.3,28l-41.4,57.1l132.7,5.6l-164.1,37l-87.9,120.4
	c40.3,26.3,87.9,41.4,139.4,41.4c117,0,215-78.4,245.8-185.4c0-1.1,0.6-1.7,0.6-2.8c3.9-13.4,6.7-27.4,7.8-41.4
	C535.4,187,515.2,6.7,515.2,6.7L515.2,6.7z"/>
</svg>
