<?xml version="1.0" encoding="utf-8"?>
<!-- Generator: Adobe Illustrator 22.0.0, SVG Export Plug-In . SVG Version: 6.00 Build 0)  -->
<svg version="1.1" id="Capa_1" xmlns="http://www.w3.org/2000/svg" xmlns:xlink="http://www.w3.org/1999/xlink" x="0px" y="0px"
	 viewBox="0 0 559.8 537.7" style="enable-background:new 0 0 559.8 537.7;" xml:space="preserve">
<style type="text/css">
	.st0{fill:#FFFFFF;}
</style>
<path class="st0" d="M556.8,232.1c0-126-124.3-228.5-277.2-228.5S2.4,106.1,2.4,232.1c0,69.4,38.1,131.6,97.4,173.6v84
	c0,25.8,21.3,47,47,47c25.8,0,47-21.3,47-47c0-10.6,9-19.6,19.6-19.6s19.6,9,19.6,19.6c0,25.8,21.3,47,47,47c25.8,0,47-21.3,47-47
	c0-10.6,9-19.6,19.6-19.6s19.6,9,19.6,19.6c0,25.8,21.3,47,47,47c25.8,0,47-21.3,47-47l0-84.6C519.3,363.1,556.8,301,556.8,232.1
	L556.8,232.1z M279.6,96c91.3,0,165.2,61,165.2,136.1c0,75-73.9,136.1-165.2,136.1s-165.2-61-165.2-136.1
	C114.4,157.1,188.3,96,279.6,96z"/>
</svg>
