<?xml version="1.0" encoding="utf-8"?>
<!-- Generator: Adobe Illustrator 22.0.0, SVG Export Plug-In . SVG Version: 6.00 Build 0)  -->
<svg version="1.1" id="Capa_1" xmlns="http://www.w3.org/2000/svg" xmlns:xlink="http://www.w3.org/1999/xlink" x="0px" y="0px"
	 viewBox="0 0 500.2 449.6" style="enable-background:new 0 0 500.2 449.6;" xml:space="preserve">
<style type="text/css">
	.st0{fill:#212529;}
</style>
<path class="st0" d="M488.3,104.6h-71.2c-4.8-19.3-21.5-33.5-41.4-33.5h-77V10.9c0-6.2-5-11.2-11.2-11.2H11.2C5-0.3,0,4.7,0,10.9
	v427.2c0,6.2,5,11.2,11.2,11.2h276.3h0h0h200.8c6.2,0,11.2-5,11.2-11.2V115.8C499.5,109.6,494.5,104.6,488.3,104.6L488.3,104.6z
	 M276.3,22.1v51.8h-144c-6.6,0-12.9,2.6-17.5,7.3L100,96c-1.7,1.7-4.1,2.7-6.5,2.7H22.4V22.1L276.3,22.1z M22.4,426.9V115.5h71.1
	c6.9,0,13.4-2.7,18.3-7.6l14.8-14.8c1.5-1.5,3.5-2.3,5.7-2.3h144v336.2L22.4,426.9z M477.1,426.9H298.7V93.5h77
	c11.2,0,20.4,10,20.4,22.3c0,6.2,5,11.2,11.2,11.2h69.8L477.1,426.9L477.1,426.9z"/>
<path class="st0" d="M67.6,87.9c16.3,0,29.6-13.3,29.6-29.6c0-16.3-13.3-29.6-29.6-29.6C51.3,28.6,38,41.9,38,58.3
	C38,74.6,51.3,87.9,67.6,87.9z M67.6,39.8c10.2,0,18.4,8.3,18.4,18.4c0,10.2-8.3,18.4-18.4,18.4c-10.2,0-18.4-8.3-18.4-18.4
	C49.2,48.1,57.5,39.8,67.6,39.8z"/>
<path class="st0" d="M113.7,51.8c5.6,0,10.2-4.6,10.2-10.2c0-5.6-4.6-10.2-10.2-10.2c-5.6,0-10.2,4.6-10.2,10.2
	S108.1,51.8,113.7,51.8z M113.7,37c2.5,0,4.6,2.1,4.6,4.6s-2.1,4.6-4.6,4.6s-4.6-2.1-4.6-4.6S111.2,37,113.7,37z"/>
<path class="st0" d="M54.8,311.4c-10.6,0-19.2,8.6-19.2,19.2s8.6,19.2,19.2,19.2c10.6,0,19.2-8.6,19.2-19.2
	C73.9,320,65.3,311.4,54.8,311.4L54.8,311.4z M54.8,338.5c-4.4,0-8-3.6-8-8s3.6-8,8-8c4.4,0,8,3.6,8,8S59.2,338.5,54.8,338.5z"/>
<path class="st0" d="M441.5,292.7c-10.2,0-18.5,8.3-18.5,18.5c0,10.2,8.3,18.5,18.5,18.5c10.2,0,18.5-8.3,18.5-18.5
	C459.9,301,451.6,292.7,441.5,292.7z M441.5,318.4c-4,0-7.3-3.3-7.3-7.3s3.3-7.3,7.3-7.3s7.3,3.3,7.3,7.3
	C448.7,315.2,445.5,318.4,441.5,318.4z"/>
<path class="st0" d="M138.9,51.8c5.6,0,10.2-4.6,10.2-10.2c0-5.6-4.6-10.2-10.2-10.2c-5.6,0-10.2,4.6-10.2,10.2
	S133.3,51.8,138.9,51.8z M138.9,37c2.5,0,4.6,2.1,4.6,4.6s-2.1,4.6-4.6,4.6s-4.6-2.1-4.6-4.6S136.4,37,138.9,37z"/>
<path class="st0" d="M164.2,51.8c5.6,0,10.2-4.6,10.2-10.2c0-5.6-4.6-10.2-10.2-10.2c-5.6,0-10.2,4.6-10.2,10.2
	C154,47.2,158.6,51.8,164.2,51.8z M164.2,37c2.5,0,4.6,2.1,4.6,4.6s-2.1,4.6-4.6,4.6s-4.6-2.1-4.6-4.6S161.7,37,164.2,37z"/>
<path class="st0" d="M244,290.1c4.6,0,8.4-3.8,8.4-8.4V143.9c0-4.6-3.8-8.4-8.4-8.4l-189.2,0c-4.6,0-8.4,3.8-8.4,8.4v110.9
	c0,2.2,0.9,4.4,2.5,5.9l26.9,26.9c1.6,1.6,3.7,2.5,5.9,2.5L244,290.1z M63.2,251.3v-99.1h172.4v121l-150.4,0L63.2,251.3z"/>
<path class="st0" d="M83.7,310.4c-3.1,0-5.6,2.5-5.6,5.6c0,3.1,2.5,5.6,5.6,5.6h25.1c3.1,0,5.6-2.5,5.6-5.6c0-3.1-2.5-5.6-5.6-5.6
	H83.7z"/>
<path class="st0" d="M129.7,310.4c-3.1,0-5.6,2.5-5.6,5.6c0,3.1,2.5,5.6,5.6,5.6h25.1c3.1,0,5.6-2.5,5.6-5.6c0-3.1-2.5-5.6-5.6-5.6
	H129.7z"/>
<path class="st0" d="M414.4,265.6c0-3.1-2.5-5.6-5.6-5.6h-25.1c-3.1,0-5.6,2.5-5.6,5.6c0,3.1,2.5,5.6,5.6,5.6h25.1
	C411.9,271.2,414.4,268.7,414.4,265.6z"/>
<path class="st0" d="M454.3,260h-25.1c-3.1,0-5.6,2.5-5.6,5.6c0,3.1,2.5,5.6,5.6,5.6h25.1c3.1,0,5.6-2.5,5.6-5.6
	S457.4,260,454.3,260z"/>
<path class="st0" d="M316.4,143v49.2c0,3.1,2.5,5.6,5.6,5.6h132.3c3.1,0,5.6-2.5,5.6-5.6V143c0-3.1-2.5-5.6-5.6-5.6l-132.3,0
	C318.9,137.4,316.4,139.9,316.4,143L316.4,143z M327.6,148.6h121.1v38H327.6V148.6z"/>
<path class="st0" d="M89.3,253.4h120.1c3.1,0,5.6-2.5,5.6-5.6l0-75.5c0-3.1-2.5-5.6-5.6-5.6H89.3c-3.1,0-5.6,2.5-5.6,5.6v75.5
	C83.7,250.9,86.2,253.4,89.3,253.4L89.3,253.4z M94.9,177.9h108.9v64.3H94.9L94.9,177.9z"/>
<path class="st0" d="M237.2,346.4h-6v-6c0-8.7-7.1-15.7-15.7-15.7c-8.7,0-15.7,7.1-15.7,15.7v6h-6c-8.7,0-15.7,7.1-15.7,15.7
	s7.1,15.7,15.7,15.7h6v6c0,8.7,7.1,15.7,15.7,15.7c8.7,0,15.7-7.1,15.7-15.7v-6h6c8.7,0,15.7-7.1,15.7-15.7
	C253,353.4,245.9,346.4,237.2,346.4z M237.2,366.6h-11.3L220,367v16.9c0,2.5-2,4.5-4.5,4.5c-2.5,0-4.5-2-4.5-4.5v-11.3l-0.3-5.9
	h-16.9c-2.5,0-4.5-2-4.5-4.5c0-2.5,2-4.5,4.5-4.5H205l5.9-0.3v-16.9c0-2.5,2-4.5,4.5-4.5c2.5,0,4.5,2,4.5,4.5v11.3l0.3,5.9h16.9
	c2.5,0,4.5,2,4.5,4.5C241.8,364.6,239.7,366.6,237.2,366.6z"/>
<path class="st0" d="M162.4,341.5H83.7c-3.1,0-5.6,2.5-5.6,5.6v44.8c0,3.1,2.5,5.6,5.6,5.6h78.7c3.1,0,5.6-2.5,5.6-5.6v-44.8
	C168,344.1,165.5,341.5,162.4,341.5z M156.8,386.3H89.3v-33.6h67.5V386.3z"/>
<path class="st0" d="M372.4,362.5H322c-3.1,0-5.6,2.5-5.6,5.6v22.3c0,3.1,2.5,5.6,5.6,5.6h50.4c3.1,0,5.6-2.5,5.6-5.6v-22.3
	C378,365,375.5,362.5,372.4,362.5z M366.8,384.8h-39.2v-11.1h39.2V384.8z"/>
<path class="st0" d="M454.3,362.5h-50.4c-3.1,0-5.6,2.5-5.6,5.6v22.3c0,3.1,2.5,5.6,5.6,5.6h50.4c3.1,0,5.6-2.5,5.6-5.6v-22.3
	C459.9,365,457.4,362.5,454.3,362.5z M448.7,384.8h-39.2v-11.1h39.2L448.7,384.8z"/>
<path class="st0" d="M377.9,292.6H322c-3.1,0-5.6,2.5-5.6,5.6v31.8c0,3.1,2.5,5.6,5.6,5.6h55.8c3.1,0,5.6-2.5,5.6-5.6v-31.8
	C383.5,295.1,381,292.6,377.9,292.6z M372.3,324.3h-44.6v-20.6h44.6V324.3z"/>
<path class="st0" d="M454.3,207.6H322c-3.1,0-5.6,2.5-5.6,5.6v31.1c0,3.1,2.5,5.6,5.6,5.6h132.3c3.1,0,5.6-2.5,5.6-5.6v-31.1
	C459.9,210.1,457.4,207.6,454.3,207.6L454.3,207.6z M448.7,238.7H327.6v-19.9h121.1V238.7z"/>
</svg>
