<?xml version="1.0" encoding="utf-8"?>
<!-- Generator: Adobe Illustrator 22.0.0, SVG Export Plug-In . SVG Version: 6.00 Build 0)  -->
<svg version="1.1" id="Capa_1" xmlns="http://www.w3.org/2000/svg" xmlns:xlink="http://www.w3.org/1999/xlink" x="0px" y="0px"
	 viewBox="0 0 315.5 507.3" style="enable-background:new 0 0 315.5 507.3;" xml:space="preserve">
<style type="text/css">
	.st0{fill:#FFFFFF;}
</style>
<path class="st0" d="M146.2,63.3c1.1,0.6,2.8,1.1,4.5,1.1c2.8,0,6.2-1.7,7.3-4.5l12.9-22.4c2.2-3.9,1.1-9.5-3.4-11.8
	c-3.9-2.2-9.5-1.1-11.8,3.4l-12.9,22.4C140.6,55.4,142.3,61,146.2,63.3L146.2,63.3z"/>
<path class="st0" d="M171.4,87.9c1.7,2.8,4.5,4.5,7.3,4.5c1.7,0,2.8-0.6,4.5-1.1l22.4-12.9c3.9-2.2,5.6-7.8,3.4-11.8
	c-2.2-3.9-7.8-5.6-11.8-3.4l-22.4,12.9C170.3,78.4,169.2,84,171.4,87.9L171.4,87.9z"/>
<path class="st0" d="M46,92.4c2.8,0,6.2-1.7,7.3-4.5c2.2-3.9,1.1-9.5-3.4-11.8L27.5,63.3c-3.9-2.2-9.5-1.1-11.8,3.4
	c-2.2,3.9-1.1,9.5,3.4,11.8l22.4,12.9C43.2,91.8,44.9,92.4,46,92.4L46,92.4z"/>
<path class="st0" d="M66.7,59.9c1.7,2.8,4.5,4.5,7.3,4.5c1.7,0,2.8-0.6,4.5-1.1c3.9-2.2,5.6-7.8,3.4-11.8L69,29.1
	c-2.2-3.9-7.8-5.6-11.8-3.4c-3.9,2.2-5.6,7.8-3.4,11.8L66.7,59.9z"/>
<path class="st0" d="M112.6,54.3c5,0,8.4-3.9,8.4-8.4l0-26.3c0-5-3.9-8.4-8.4-8.4c-5,0-8.4,3.9-8.4,8.4l0,25.8
	C103.7,50.4,107.6,54.3,112.6,54.3L112.6,54.3z"/>
<path class="st0" d="M298,357.3c0-21.3-17.4-38.6-38.6-38.6c-5,0-9.5,1.1-14.6,2.8c-6.2-12.3-19.6-21.3-34.2-21.3
	c-5.6,0-10.6,1.1-15.1,2.8c-6.7-12.3-19-20.2-34.2-20.2c-3.9,0-7.3,0.6-10.6,1.7v-11.2v-35.8v-16.8c0-3.9-0.6-7.3-1.7-10.6
	c21.3-12.3,35.8-35.8,35.8-62.2c0-39.8-32.5-72.2-72.2-72.2c-39.8,0-72.2,32.5-72.2,72.2c0,26.3,14.6,49.8,35.8,62.2
	c-1.7,4.5-2.2,9-2.2,13.4V341c-14,4.5-26.9,17.9-27.4,36.4c-1.1,29.7,1.7,66.6,27.4,93.5c21.8,22.4,56.6,33.6,105.3,33.6
	c43.7,0,76.7-12.9,96.9-38.6c14-17.9,21.8-42,21.8-70V357.3z M112.6,89.6c29.7,0,54.3,22.4,57.7,51.5h-27.4
	c-2.8-14-15.7-24.1-30.2-24.1c-14.6,0-26.9,10.1-30.2,24.1H55C57.8,112,83,89.6,112.6,89.6L112.6,89.6z M129.4,147.8
	c0,9.5-7.8,17.4-17.4,17.4c-9.5,0-17.4-7.8-17.4-17.4s7.8-17.4,17.4-17.4C122.2,131,129.4,138.3,129.4,147.8z M55,155.1h27.4
	c3.4,13.4,15.7,23.5,30.2,23.5c14,0,26.9-10.1,30.2-23.5h27.4c-2.2,18.5-13.4,34.2-28.6,42.6c-7.3-7.8-17.9-12.9-29.1-12.9
	c-11.8,0-21.8,5-29.1,12.9C68.4,189.3,57.2,173.6,55,155.1L55,155.1z M179.3,487.2c-103.6,0-117-52.6-115.9-109.2
	c0.6-13.4,12.3-21.8,21.8-21.8l0,25.2c0,3.4,2.2,3.4,2.8,3.4c0.6,0,2.8-0.6,2.8-3.4V223.4c0-11.8,9.5-21.3,21.3-21.3
	c10.6,0,21.3,8.4,21.3,18.5v96.9v3.9c0,1.7,1.7,3.4,3.4,3.4s3.4-1.7,3.4-3.4v-1.1c0-11.8,9.5-20.7,21.3-20.7s21.3,9.5,21.3,21.3V336
	c0,1.7,1.7,3.4,3.4,3.4s3.4-1.7,3.4-3.4v-1.1c0-10.6,10.6-17.9,21.3-17.9c11.8,0,21.3,9.5,21.3,21.3v15.7c0,1.7,1.7,3.4,3.4,3.4
	s3.4-1.7,3.4-3.4v-1.1c0-9.5,10.6-17.4,20.7-17.4c11.8,0,21.3,9.5,21.3,21.3v39.2C280.6,432.9,266.6,487.2,179.3,487.2L179.3,487.2z
	"/>
</svg>
