<?xml version="1.0" encoding="utf-8"?>
<!-- Generator: Adobe Illustrator 22.0.0, SVG Export Plug-In . SVG Version: 6.00 Build 0)  -->
<svg version="1.1" id="Capa_1" xmlns="http://www.w3.org/2000/svg" xmlns:xlink="http://www.w3.org/1999/xlink" x="0px" y="0px"
	 viewBox="0 0 339.8 471.1" style="enable-background:new 0 0 339.8 471.1;" xml:space="preserve">
<style type="text/css">
	.st0{fill:#212529;}
</style>
<path class="st0" d="M170,1C77.6,1,2,76.6,2,169c0,39.8,10.6,73.9,31.4,97.4c38.1,44.2,56.6,89.6,71.1,125.4
	c16.8,41.4,30.2,74.5,65,74.5c35.8,0,53.2-38.6,75-86.8c15.7-34.2,34.7-76.7,64.4-116.5c19-25.2,29.1-58.2,29.1-94.6
	C338,76,262.4,1,170,1L170,1z M123,68.8c-26.3,11.2-47,33.6-56.6,60.5c-1.7,5-6.7,8.4-11.8,8.4c-1.1,0-2.8,0-3.9-0.6
	c-6.7-2.2-10.1-9.5-7.8-15.7c11.8-33.6,37.5-61,70-75c6.2-2.8,13.4,0,16.2,6.7C131.9,59.2,129.1,66.5,123,68.8L123,68.8z M170,142.1
	c15.7,0,28,12.3,28,28s-12.3,28-28,28s-28-12.3-28-28S154.9,142.1,170,142.1z M216.5,366.7c-16.2,37-30.8,68.9-46.5,68.9
	c-13.4,0-22.4-20.2-36.4-55.4c-15.1-36.4-35.3-86.2-76.7-133.8c-17.4-20.2-22.4-46.5-23.5-68.3h78.4c3.9,28.6,28.6,51,58.2,51
	c29.7,0,54.3-22.4,58.2-51h78.4c-1.7,25.8-9,48.7-22.4,66.6C252.3,287.2,232.7,331.4,216.5,366.7L216.5,366.7z"/>
</svg>
