<?xml version="1.0" encoding="utf-8"?>
<!-- Generator: Adobe Illustrator 22.0.0, SVG Export Plug-In . SVG Version: 6.00 Build 0)  -->
<svg version="1.1" id="Capa_1" xmlns="http://www.w3.org/2000/svg" xmlns:xlink="http://www.w3.org/1999/xlink" x="0px" y="0px"
	 viewBox="0 0 495.5 441.1" style="enable-background:new 0 0 495.5 441.1;" xml:space="preserve">
<path d="M488.7,101.2h-71.2c-4.8-19.3-21.5-33.5-41.4-33.5h-77V7.4c0-6.2-5-11.2-11.2-11.2H11.6c-6.2,0-11.2,5-11.2,11.2v427.2
	c0,6.2,5,11.2,11.2,11.2h276.3h0h0h200.8c6.2,0,11.2-5,11.2-11.2V112.4C499.9,106.2,494.9,101.2,488.7,101.2L488.7,101.2z
	 M276.7,18.6v51.8h-144c-6.6,0-12.9,2.6-17.5,7.3l-14.8,14.8c-1.7,1.7-4.1,2.7-6.5,2.7H22.8V18.6L276.7,18.6z M22.8,423.4V112h71.1
	c6.9,0,13.4-2.7,18.3-7.6l14.8-14.8c1.5-1.5,3.5-2.3,5.7-2.3h144v336.2L22.8,423.4z M477.5,423.4H299.1V90h77
	c11.2,0,20.4,10,20.4,22.3c0,6.2,5,11.2,11.2,11.2h69.8L477.5,423.4L477.5,423.4z"/>
<path d="M68,84.4c16.3,0,29.6-13.3,29.6-29.6c0-16.3-13.3-29.6-29.6-29.6c-16.3,0-29.6,13.3-29.6,29.6C38.4,71.1,51.7,84.4,68,84.4z
	 M68,36.3c10.2,0,18.4,8.3,18.4,18.4c0,10.2-8.3,18.4-18.4,18.4c-10.2,0-18.4-8.3-18.4-18.4C49.6,44.6,57.8,36.3,68,36.3z"/>
<path d="M114.1,48.3c5.6,0,10.2-4.6,10.2-10.2c0-5.6-4.6-10.2-10.2-10.2c-5.6,0-10.2,4.6-10.2,10.2S108.4,48.3,114.1,48.3z
	 M114.1,33.5c2.5,0,4.6,2.1,4.6,4.6s-2.1,4.6-4.6,4.6s-4.6-2.1-4.6-4.6S111.5,33.5,114.1,33.5z"/>
<path d="M55.1,307.9c-10.6,0-19.2,8.6-19.2,19.2s8.6,19.2,19.2,19.2c10.6,0,19.2-8.6,19.2-19.2C74.3,316.5,65.7,307.9,55.1,307.9
	L55.1,307.9z M55.1,335c-4.4,0-8-3.6-8-8s3.6-8,8-8c4.4,0,8,3.6,8,8S59.6,335,55.1,335z"/>
<path d="M139.3,48.3c5.6,0,10.2-4.6,10.2-10.2c0-5.6-4.6-10.2-10.2-10.2c-5.6,0-10.2,4.6-10.2,10.2S133.7,48.3,139.3,48.3z
	 M139.3,33.5c2.5,0,4.6,2.1,4.6,4.6s-2.1,4.6-4.6,4.6s-4.6-2.1-4.6-4.6S136.8,33.5,139.3,33.5z"/>
<path d="M164.6,48.3c5.6,0,10.2-4.6,10.2-10.2c0-5.6-4.6-10.2-10.2-10.2c-5.6,0-10.2,4.6-10.2,10.2C154.4,43.8,159,48.3,164.6,48.3z
	 M164.6,33.5c2.5,0,4.6,2.1,4.6,4.6s-2.1,4.6-4.6,4.6s-4.6-2.1-4.6-4.6S162,33.5,164.6,33.5z"/>
<path d="M244.3,286.6c4.6,0,8.4-3.8,8.4-8.4V140.4c0-4.6-3.8-8.4-8.4-8.4l-189.2,0c-4.6,0-8.4,3.8-8.4,8.4v110.9
	c0,2.2,0.9,4.4,2.5,5.9l26.9,26.9c1.6,1.6,3.7,2.5,5.9,2.5L244.3,286.6z M63.5,247.9v-99.1h172.4v121l-150.4,0L63.5,247.9z"/>
<path d="M84.1,306.9c-3.1,0-5.6,2.5-5.6,5.6c0,3.1,2.5,5.6,5.6,5.6h25.1c3.1,0,5.6-2.5,5.6-5.6c0-3.1-2.5-5.6-5.6-5.6H84.1z"/>
<path d="M130.1,306.9c-3.1,0-5.6,2.5-5.6,5.6c0,3.1,2.5,5.6,5.6,5.6h25.1c3.1,0,5.6-2.5,5.6-5.6c0-3.1-2.5-5.6-5.6-5.6H130.1z"/>
<path d="M237.6,342.9h-6v-6c0-8.7-7.1-15.7-15.7-15.7c-8.7,0-15.7,7.1-15.7,15.7v6h-6c-8.7,0-15.7,7.1-15.7,15.7s7.1,15.7,15.7,15.7
	h6v6c0,8.7,7.1,15.7,15.7,15.7c8.7,0,15.7-7.1,15.7-15.7v-6h6c8.7,0,15.7-7.1,15.7-15.7C253.4,350,246.3,342.9,237.6,342.9z
	 M237.6,363.2h-11.3l-5.9,0.3v16.9c0,2.5-2,4.5-4.5,4.5c-2.5,0-4.5-2-4.5-4.5v-11.3l-0.3-5.9h-16.9c-2.5,0-4.5-2-4.5-4.5
	c0-2.5,2-4.5,4.5-4.5h11.3l5.9-0.3v-16.9c0-2.5,2-4.5,4.5-4.5c2.5,0,4.5,2,4.5,4.5v11.3l0.3,5.9h16.9c2.5,0,4.5,2,4.5,4.5
	C242.2,361.1,240.1,363.2,237.6,363.2z"/>
<path d="M162.8,338.1H84.1c-3.1,0-5.6,2.5-5.6,5.6v44.8c0,3.1,2.5,5.6,5.6,5.6h78.7c3.1,0,5.6-2.5,5.6-5.6v-44.8
	C168.4,340.6,165.9,338.1,162.8,338.1z M157.2,382.8H89.7v-33.6h67.5V382.8z"/>
</svg>
