<?xml version="1.0" encoding="utf-8"?>
<!-- Generator: Adobe Illustrator 22.0.0, SVG Export Plug-In . SVG Version: 6.00 Build 0)  -->
<svg version="1.1" id="Capa_1" xmlns="http://www.w3.org/2000/svg" xmlns:xlink="http://www.w3.org/1999/xlink" x="0px" y="0px"
	 viewBox="0 0 409.3 510" style="enable-background:new 0 0 409.3 510;" xml:space="preserve">
<style type="text/css">
	.st0{fill:#FFFFFF;}
</style>
<path class="st0" d="M208.5,3.7c-108.3,0-196,87.8-196,196c0,1.6,0.1,3.2,0.1,4.8c0.7-2.9,8.6-5.3,21.7-7.4
	c1.3-91.2,72.6-169.4,162.6-175.6c6.3-0.4,11.6,4.6,11.6,10.9c0,5.7-4.4,10.4-10.2,10.8c-79,5.2-141.8,71-142.3,151.2
	c28.4-2.8,67.9-4.5,110.2-5.2c4.7-19,21.8-33,42.2-33c20.4,0,37.5,14,42.2,33c80.8,1.3,151.5,6.3,153.7,15.4c0-1.6,0.1-3.2,0.1-4.8
	C404.5,91.4,316.7,3.7,208.5,3.7L208.5,3.7z"/>
<path class="st0" d="M208.5,243.2c-20.2,0-37.1-13.7-42.1-32.4c-75.1,1.2-141.5,5.6-152.4,13.5c5,39.5,21.7,75.3,46.6,103.9
	c29.8,34.3,59.3,68.8,87.7,104.3l60.1,75.1l60.1-75.1c28.4-35.5,57.9-70.1,87.8-104.4c24.8-28.5,41.5-64.3,46.5-103.8
	c-10.9-7.7-77.3-12.2-152.4-13.5C245.5,229.5,228.6,243.2,208.5,243.2L208.5,243.2z"/>
</svg>
