<?xml version="1.0" encoding="utf-8"?>
<!-- Generator: Adobe Illustrator 22.0.0, SVG Export Plug-In . SVG Version: 6.00 Build 0)  -->
<svg version="1.1" id="Capa_1" xmlns="http://www.w3.org/2000/svg" xmlns:xlink="http://www.w3.org/1999/xlink" x="0px" y="0px"
	 viewBox="0 0 576.6 563.4" style="enable-background:new 0 0 576.6 563.4;" xml:space="preserve">
<style type="text/css">
	.st0{fill:#212529;}
</style>
<path class="st0" d="M300,145.8h-17.5c-4.8,0-8.8,3.9-8.8,8.8s3.9,8.8,8.8,8.8H300c4.8,0,8.8-3.9,8.8-8.8S304.8,145.8,300,145.8z"/>
<path class="st0" d="M282.5,425.8c-4.8,0-8.8,3.9-8.8,8.8s3.9,8.8,8.8,8.8H300c4.8,0,8.8-3.9,8.8-8.8s-3.9-8.8-8.8-8.8H282.5z"/>
<path class="st0" d="M411.9,464.1c-1.7-2.1-4.2-3.4-6.9-3.4h-12.6c-5,0-9.9-1.5-14.1-4.2c-4.2-2.7-7.6-6.6-9.7-11.1l-38.8-84.1h0
	c8.7-1.3,17.6,0.3,25.3,4.5c7.7,4.2,13.8,10.9,17.3,18.9c0.1,0.3,0.3,0.6,0.5,0.9l15.9,27l0,0c1.5,2.8,4.5,4.4,7.6,4.3
	c3.1,0,6-1.7,7.5-4.4l35-61.3c2.4-4.2,0.9-9.5-3.3-11.9c-4.2-2.4-9.5-0.9-11.9,3.3l-27.5,48.1l-8-13.5c-6.1-13.5-17.2-24.2-31-29.7
	c-13.8-5.5-29.2-5.5-42.9,0c-2.2,0.9-4,2.7-4.9,4.9c-0.9,2.2-0.8,4.7,0.2,6.9l43.1,93.4c3.5,7.6,9.1,14,16.2,18.5
	c7,4.5,15.2,6.9,23.6,6.9h8.3l58.6,75.4c3,3.8,8.5,4.5,12.3,1.5s4.5-8.5,1.5-12.3L411.9,464.1z"/>
<path class="st0" d="M501.2,423.1v-93.6c0-1.2-0.3-2.4-0.8-3.6l-35-78.8c-0.6-1.3-1.4-2.4-2.5-3.3l-43.8-35
	c-1.6-1.2-3.5-1.9-5.5-1.9h-17.5v-61.3c0-7-2.8-13.6-7.7-18.6c-4.9-4.9-11.6-7.7-18.6-7.7H212.5c-7,0-13.6,2.8-18.6,7.7
	c-4.9,4.9-7.7,11.6-7.7,18.6v297.5c0,7,2.8,13.6,7.7,18.6c4.9,4.9,11.6,7.7,18.6,7.7h105c4.8,0,8.8-3.9,8.8-8.8s-3.9-8.8-8.8-8.8
	h-105c-4.8,0-8.7-3.9-8.8-8.8V417h105c4.8,0,8.8-3.9,8.8-8.8s-3.9-8.8-8.8-8.8h-105v-210h175v148.8c0,4.8,3.9,8.8,8.8,8.8
	s8.8-3.9,8.8-8.8v-70h5.1l21.1,21.1V312c0,4.8,3.9,8.8,8.8,8.8s8.8-3.9,8.8-8.8v-26.3c0-2.3-0.9-4.5-2.6-6.2l-26.3-26.3
	c-1.6-1.6-3.9-2.6-6.2-2.6h-8.8v-26.3h14.4l39.7,31.8l33.4,75.1v94.4c0,1.7,0.5,3.4,1.5,4.9l70,105c2.7,4,8.1,5,12.1,2.4
	c4-2.7,5.1-8,2.5-12.1L501.2,423.1z M203.7,172v-26.3c0-4.8,3.9-8.7,8.8-8.8H370c4.8,0,8.7,3.9,8.8,8.8V172H203.7z"/>
<path class="st0" d="M352.5,285.8c0-16.2-6.5-31.8-17.9-43.3c-11.5-11.5-27.1-17.9-43.3-17.9s-31.8,6.5-43.3,17.9
	c-11.5,11.5-17.9,27.1-17.9,43.3s6.5,31.8,17.9,43.3c11.5,11.5,27.1,17.9,43.3,17.9c16.2,0,31.8-6.5,43.3-18
	C346,317.6,352.5,302,352.5,285.8z M291.2,242c10.1,0,19.8,3.5,27.7,9.9s13.2,15.2,15.2,25.1h-18.2c-2.4-6.9-7.5-12.4-14.2-15.3
	c-6.7-2.9-14.2-2.9-20.9,0c-6.7,2.9-11.8,8.5-14.2,15.3h-18.2c2-9.9,7.4-18.7,15.2-25.1S281.2,242,291.2,242L291.2,242z M300,285.8
	c0,3.5-2.1,6.7-5.4,8.1c-3.3,1.4-7,0.6-9.5-1.9s-3.3-6.3-1.9-9.5c1.4-3.3,4.5-5.4,8.1-5.4C296.1,277,300,280.9,300,285.8z
	 M248.4,294.5h18.2c2.4,6.9,7.5,12.4,14.2,15.3c6.7,2.9,14.2,2.9,20.9,0c6.7-2.9,11.8-8.5,14.2-15.3h18.2
	c-2.7,13.3-11.4,24.5-23.6,30.5c-12.2,6-26.4,6-38.6,0C259.8,319,251.1,307.8,248.4,294.5L248.4,294.5z"/>
<path class="st0" d="M221.2,364.5c0,2.3,0.9,4.5,2.6,6.2s3.9,2.6,6.2,2.6h17.5c4.8,0,8.8-3.9,8.8-8.8s-3.9-8.8-8.8-8.8h-8.8V347
	c0-4.8-3.9-8.8-8.8-8.8s-8.8,3.9-8.8,8.8V364.5z"/>
<path class="st0" d="M352.5,233.3c2.3,0,4.5-0.9,6.2-2.6s2.6-3.9,2.6-6.2V207c0-2.3-0.9-4.5-2.6-6.2s-3.9-2.6-6.2-2.6H335
	c-4.8,0-8.8,3.9-8.8,8.8s3.9,8.8,8.8,8.8h8.8v8.8c0,2.3,0.9,4.5,2.6,6.2S350.2,233.3,352.5,233.3z"/>
<path class="st0" d="M230,233.3c2.3,0,4.5-0.9,6.2-2.6s2.6-3.9,2.6-6.2v-8.8h8.8c4.8,0,8.8-3.9,8.8-8.8s-3.9-8.8-8.8-8.8H230
	c-4.8,0-8.8,3.9-8.8,8.8v17.5c0,2.3,0.9,4.5,2.6,6.2S227.7,233.3,230,233.3z"/>
<path class="st0" d="M154.8,120.3c-2.7-1.2-5.9-1-8.4,0.7c-14,10.6-24.6,25-30.7,41.4c-8.7-16.2-23.5-28.4-41.1-33.9
	c-3.5-0.9-7.2,0.5-9.3,3.4c-2.1,3-2.1,6.9-0.1,9.9c6.7,10.1,8.2,22.8,4,34.2l-26.4-19.8l0,0c-3-2.2-7-2.3-10.1-0.3
	c-3.1,2-4.5,5.8-3.6,9.4l8.8,35c1.2,4.7,5.9,7.5,10.6,6.4c4.7-1.2,7.5-5.9,6.4-10.6L52,185l15.3,11.5c1.9,1.4,4.4,2,6.7,1.6
	c2.4-0.4,4.5-1.8,5.8-3.8c7-11.4,10.2-24.8,9-38.1c10,9.3,16.6,21.5,18.9,34.9c0.8,4.1,4.4,7,8.6,7h0c4.2,0,7.8-2.9,8.6-7
	c3.6-16.3,10.4-31.7,20.1-45.2l6.4,44.7c0.7,4.8,5.1,8.1,9.9,7.4c4.8-0.7,8.1-5.1,7.4-9.9l-8.8-61.3
	C159.5,124,157.6,121.5,154.8,120.3L154.8,120.3z"/>
<path class="st0" d="M534.1,198c4.7,1.2,9.4-1.7,10.6-6.4l8.8-35c0.9-3.6-0.6-7.4-3.6-9.4c-3.1-2.1-7.1-1.9-10.1,0.3l-26.4,19.8
	c-4.2-11.4-2.7-24.1,4-34.2c2-3,2-6.9-0.1-9.9c-2.1-3-5.8-4.3-9.3-3.4c-17.6,5.5-32.3,17.6-41.1,33.9c-6.1-16.5-16.7-30.8-30.7-41.4
	c-2.5-1.7-5.7-1.9-8.4-0.7c-2.7,1.2-4.7,3.8-5.1,6.8l-8.8,61.3c-0.7,4.8,2.6,9.2,7.4,9.9c4.8,0.7,9.2-2.6,9.9-7.4l6.4-44.7
	c9.7,13.6,16.5,28.9,20.1,45.2c0.8,4.1,4.4,7,8.6,7h0c4.2,0,7.8-2.9,8.6-7c2.3-13.4,8.9-25.7,18.9-35c-1.2,13.3,1.9,26.7,9,38.1
	c1.3,2,3.4,3.4,5.8,3.8c2.4,0.4,4.8-0.2,6.7-1.6l15.3-11.5l-2.8,11.1h0C526.6,192.1,529.4,196.8,534.1,198L534.1,198z"/>
<path class="st0" d="M35.4,338.5c-2.8,0.7-5.1,2.8-6.1,5.6c-1,2.8-0.5,5.8,1.2,8.2l26.3,35c1.4,1.9,3.5,3.1,5.8,3.4
	c2.3,0.3,4.6-0.3,6.5-1.7c1.9-1.4,3.1-3.5,3.4-5.8c0.3-2.3-0.3-4.6-1.7-6.5l-17.3-23.1h0c10.8-1.4,21.8,1.6,30.4,8.3
	c2.8,2.8,7.2,3.4,10.6,1.4c3.4-2,5.1-6.1,4-9.9l-13.6-47.7c16.3,5.3,43.5,22.4,49,77.2c0.4,4.5,4.2,7.9,8.7,7.9c0.3,0,0.6,0,0.9,0
	c4.8-0.5,8.3-4.8,7.8-9.6c-9.4-94.3-78-95.4-78.7-95.4c-2.7,0-5.3,1.3-7,3.5c-1.7,2.2-2.2,5-1.4,7.7l11.8,41.5
	C62.6,335.4,48.7,335.4,35.4,338.5L35.4,338.5z"/>
<path class="st0" d="M110.7,435.1c-2.9-1.2-6.2-0.7-8.7,1.2c-2.5,1.9-3.7,5-3.3,8.1l5.6,38.9c-21.1-9.3-43.9-14-66.9-13.9
	c-3.9,0-7.3,2.5-8.4,6.2s0.3,7.7,3.5,9.8c23,15.3,31.3,47,31.4,47.4h0c1.2,4.7,5.9,7.5,10.6,6.3c4.7-1.2,7.5-5.9,6.4-10.6
	c-4-14.4-10.7-27.9-19.7-39.8c18.3,2.6,39.7,8.5,47.7,20.5l0,0c2.3,3.4,6.6,4.8,10.4,3.3c3.8-1.5,6.1-5.4,5.5-9.4l-6.2-43.1v0
	c17.5,13.3,29.2,32.8,32.6,54.5c0.8,4.8,5.3,8,10.1,7.2c4.8-0.8,8-5.3,7.2-10.1C163.4,478.2,141.7,449.4,110.7,435.1L110.7,435.1z"
	/>
<path class="st0" d="M223.8,108.2c3.4,3.4,8.9,3.3,12.3-0.1c3.4-3.4,3.4-8.9,0.1-12.3L139.9-0.4c-1.7-1.7-4-2.6-6.4-2.6
	c-2.4,0-4.6,1.1-6.3,2.8L13.6,122.3c-3.3,3.5-3.1,9.1,0.5,12.4c3.5,3.3,9.1,3.1,12.4-0.4L134,18.4L223.8,108.2z"/>
<path class="st0" d="M381.3,108.2c1.6,1.6,3.9,2.6,6.2,2.6s4.5-0.9,6.2-2.6L475,26.9l81.3,81.3v0c1.6,1.7,3.9,2.6,6.2,2.6
	c2.3,0,4.6-0.9,6.2-2.6c1.6-1.6,2.6-3.9,2.6-6.2c0-2.3-0.9-4.6-2.6-6.2L481.2,8.3c-1.6-1.6-3.9-2.6-6.2-2.6s-4.5,0.9-6.2,2.6
	l-87.5,87.5c-1.6,1.6-2.6,3.9-2.6,6.2S379.7,106.5,381.3,108.2L381.3,108.2z"/>
<path class="st0" d="M244,82.8l64.8-48.6l64.8,48.6c3.9,2.9,9.3,2.1,12.3-1.8c2.9-3.9,2.1-9.3-1.8-12.3l-70-52.5
	c-3.1-2.3-7.4-2.3-10.5,0l-70,52.5c-1.9,1.4-3.1,3.5-3.4,5.8s0.3,4.6,1.7,6.5C234.6,84.9,240.1,85.6,244,82.8z"/>
</svg>
