<?xml version="1.0" encoding="utf-8"?>
<!-- Generator: Adobe Illustrator 22.0.0, SVG Export Plug-In . SVG Version: 6.00 Build 0)  -->
<svg version="1.1" id="Capa_1" xmlns="http://www.w3.org/2000/svg" xmlns:xlink="http://www.w3.org/1999/xlink" x="0px" y="0px"
	 viewBox="0 0 354.2 343.9" style="enable-background:new 0 0 354.2 343.9;" xml:space="preserve">
<path d="M178.2,5.8C87.4,5.8,13.7,79.6,13.7,170.3s73.7,164.5,164.4,164.5S342.6,261,342.6,170.3S268.9,5.8,178.2,5.8z M178.2,48.8
	c62.5,0,114.2,47.6,120.8,108.5H233c-6-24.8-28.2-43.3-54.9-43.3s-48.9,18.5-54.9,43.3H57.4C63.9,96.3,115.6,48.8,178.2,48.8
	L178.2,48.8z M204.7,170.3c0,14.6-11.9,26.5-26.5,26.5c-14.6,0-26.5-11.9-26.5-26.5c0-14.6,11.9-26.5,26.5-26.5
	C192.7,143.8,204.7,155.7,204.7,170.3z M178.2,291.8c-61.4,0-112.2-45.7-120.4-104.7h66.5c7.1,23,28.6,39.6,53.9,39.6
	c25.2,0,46.7-16.6,53.9-39.6h66.5C290.3,246.2,239.6,291.8,178.2,291.8L178.2,291.8z"/>
</svg>
