<?xml version="1.0" encoding="utf-8"?>
<!-- Generator: Adobe Illustrator 22.0.0, SVG Export Plug-In . SVG Version: 6.00 Build 0)  -->
<svg version="1.1" id="Capa_1" xmlns="http://www.w3.org/2000/svg" xmlns:xlink="http://www.w3.org/1999/xlink" x="0px" y="0px"
	 viewBox="0 0 387.4 563.9" style="enable-background:new 0 0 387.4 563.9;" xml:space="preserve">
<style type="text/css">
	.st0{fill:#FFFFFF;}
</style>
<path class="st0" d="M380.2,315.3c0-0.6-0.6-1.7-0.6-2.2c-1.1-4.5-2.8-9-4.5-13.4C337.1,189.3,195.4,2.8,195.4,2.8
	S53.7,189.3,15.6,299.6c-1.7,4.5-2.8,9-4.5,13.4c0,0.6-0.6,1.7-0.6,2.2c-4.5,16.2-6.7,33-6.7,50.4c0,105.8,85.7,191.5,191.5,191.5
	s191.5-85.7,191.5-191.5C386.9,348.3,384.7,331.5,380.2,315.3L380.2,315.3z M292.8,445.2c-21.8,30.2-57.1,50.4-97.4,50.4
	c-60.5,0-110.3-44.8-118.2-103V392v0.6c0-16.2,12.9-29.1,29.1-29.1c14,0,26.3,10.1,28.6,24.1c6.2,28.6,29.1,52.6,59.9,58.2
	c26.9,5,53.2-4.5,70.6-23.5c3.4-2.8,8.4-4.5,13.4-3.9c10.1,1.1,17.4,9.5,16.8,19.6C295.1,440.2,293.9,443,292.8,445.2L292.8,445.2z"
	/>
</svg>
